<svg width="30" height="30" viewBox="0 0 30 30" fill="none" xmlns="http://www.w3.org/2000/svg">
<g clip-path="url(#clip0_204_124)">
<path d="M29.0735 20.2499L25.8235 8.53616C25.1295 6.03043 23.6173 3.82884 21.5276 2.28177C19.4379 0.734701 16.8908 -0.068935 14.2916 -0.00123545C11.6924 0.0664641 9.19059 1.00161 7.18425 2.65536C5.17791 4.30912 3.78239 6.58645 3.21977 9.12491L0.706022 20.4374C0.584388 20.9855 0.587355 21.5538 0.714704 22.1006C0.842053 22.6473 1.09053 23.1585 1.44182 23.5964C1.7931 24.0343 2.23821 24.3878 2.74433 24.6307C3.25044 24.8736 3.80463 24.9998 4.36602 24.9999H8.87477C9.16167 26.4128 9.92818 27.683 11.0444 28.5954C12.1607 29.5078 13.5581 30.0062 14.9998 30.0062C16.4415 30.0062 17.8388 29.5078 18.9551 28.5954C20.0714 27.683 20.8379 26.4128 21.1248 24.9999H25.4623C26.0399 24.9996 26.6097 24.8659 27.1271 24.6092C27.6446 24.3525 28.0957 23.9797 28.4454 23.52C28.7951 23.0602 29.0338 22.5259 29.143 21.9586C29.2522 21.3914 29.2288 20.8066 29.0748 20.2499H29.0735ZM14.9998 27.4999C14.2269 27.4967 13.474 27.2548 12.8439 26.8073C12.2138 26.3598 11.7374 25.7285 11.4798 24.9999H18.5198C18.2622 25.7285 17.7857 26.3598 17.1556 26.8073C16.5256 27.2548 15.7726 27.4967 14.9998 27.4999ZM26.456 22.0062C26.3394 22.1608 26.1882 22.2859 26.0146 22.3717C25.841 22.4574 25.6497 22.5013 25.456 22.4999H4.36602C4.17885 22.4999 3.99407 22.4578 3.82533 22.3768C3.65659 22.2958 3.50819 22.178 3.39109 22.032C3.27399 21.8859 3.19117 21.7155 3.14876 21.5332C3.10634 21.3509 3.10541 21.1614 3.14602 20.9787L5.65977 9.66616C6.10271 7.67392 7.19891 5.88691 8.77409 4.58922C10.3493 3.29153 12.3131 2.55762 14.3532 2.50418C16.3934 2.45073 18.3929 3.08081 20.0339 4.29425C21.6749 5.50768 22.8631 7.23484 23.4098 9.20116L26.6598 20.9149C26.7128 21.1001 26.7221 21.2952 26.6867 21.4846C26.6513 21.674 26.5724 21.8526 26.456 22.0062Z" fill="#143642"/>
</g>
<defs>
<clipPath id="clip0_204_124">
<rect width="30" height="30" fill="white"/>
</clipPath>
</defs>
</svg>
