<svg width="30" height="30" viewBox="0 0 30 30" fill="none" xmlns="http://www.w3.org/2000/svg">
<g clip-path="url(#clip0_204_120)">
<path d="M21.8753 1.14645C20.4678 1.16835 19.0909 1.56127 17.8838 2.28554C16.6766 3.00982 15.682 4.03979 15.0003 5.27145C14.3186 4.03979 13.324 3.00982 12.1169 2.28554C10.9097 1.56127 9.53288 1.16835 8.12531 1.14645C5.88149 1.24394 3.76745 2.22552 2.24504 3.87674C0.722638 5.52797 -0.0843741 7.71461 0.000314075 9.95895C0.000314074 18.4277 13.6953 28.209 14.2778 28.624L15.0003 29.1352L15.7228 28.624C16.3053 28.2115 30.0003 18.4277 30.0003 9.95895C30.085 7.71461 29.278 5.52797 27.7556 3.87674C26.2332 2.22552 24.1191 1.24394 21.8753 1.14645ZM15.0003 26.0577C10.9341 23.0202 2.50031 15.5577 2.50031 9.95895C2.41486 8.37735 2.95827 6.82612 4.01202 5.64358C5.06576 4.46104 6.54436 3.74314 8.12531 3.64645C9.70627 3.74314 11.1849 4.46104 12.2386 5.64358C13.2924 6.82612 13.8358 8.37735 13.7503 9.95895H16.2503C16.1649 8.37735 16.7083 6.82612 17.762 5.64358C18.8158 4.46104 20.2944 3.74314 21.8753 3.64645C23.4563 3.74314 24.9349 4.46104 25.9886 5.64358C27.0424 6.82612 27.5858 8.37735 27.5003 9.95895C27.5003 15.5602 19.0666 23.0202 15.0003 26.0577Z" fill="#143642"/>
</g>
<defs>
<clipPath id="clip0_204_120">
<rect width="30" height="30" fill="white"/>
</clipPath>
</defs>
</svg>
