<svg width="30" height="30" viewBox="0 0 30 30" fill="none" xmlns="http://www.w3.org/2000/svg">
<g clip-path="url(#clip0_204_127)">
<path d="M29.9998 28.236L22.1876 20.4237C26.5559 15.0811 25.7662 7.2089 20.4236 2.84056C15.081 -1.52778 7.20877 -0.737996 2.84044 4.60464C-1.5279 9.94728 -0.738113 17.8195 4.60446 22.1878C9.20629 25.9505 15.8218 25.9505 20.4235 22.1878L28.2358 30L29.9998 28.236ZM12.534 22.5146C7.02192 22.5146 2.5535 18.0462 2.5535 12.5341C2.5535 7.02204 7.02192 2.55363 12.534 2.55363C18.0461 2.55363 22.5145 7.02204 22.5145 12.5341C22.5083 18.0436 18.0435 22.5084 12.534 22.5146ZM14.9979 7.54388C14.0896 7.5328 13.2089 7.85554 12.5227 8.45085C11.822 7.85372 10.9282 7.53146 10.0077 7.54388C7.87369 7.61712 6.20055 9.40183 6.265 11.5361C6.265 14.9569 11.2166 18.5586 11.7817 18.9578L12.5028 19.4681L13.2227 18.9578C13.7878 18.5586 18.7406 14.9569 18.7406 11.5361C18.8044 9.40206 17.1316 7.61777 14.9979 7.54388ZM12.5028 16.3779C10.7563 14.9906 8.76016 12.876 8.76016 11.5361C8.69787 10.7803 9.25305 10.1141 10.0077 10.039C10.6691 9.99503 11.2409 10.4955 11.2849 11.1569C11.2878 11.2001 11.2883 11.2434 11.2865 11.2866H13.7816C13.7229 10.6574 14.1854 10.1 14.8145 10.0413C14.8755 10.0356 14.9368 10.0349 14.9979 10.039C15.7523 10.1147 16.3071 10.7804 16.2455 11.536C16.2455 12.876 14.2444 14.9906 12.5028 16.3779Z" fill="#143642"/>
</g>
<defs>
<clipPath id="clip0_204_127">
<rect width="30" height="30" fill="white"/>
</clipPath>
</defs>
</svg>
