<svg width="24" height="24" viewBox="0 0 24 24" fill="none" xmlns="http://www.w3.org/2000/svg">
<g clip-path="url(#clip0_346_1907)">
<path d="M21.9995 0H17.9995V2H20.5855L18.1855 4.4C17.0911 3.57348 15.7763 3.08974 14.4071 3.00983C13.0379 2.92992 11.6757 3.25742 10.4925 3.951C9.60077 3.4357 8.60613 3.12387 7.57978 3.03781C6.55343 2.95176 5.52075 3.09361 4.55562 3.45322C3.59048 3.81283 2.71676 4.3813 1.99696 5.11798C1.27716 5.85465 0.729074 6.7413 0.391917 7.7145C0.0547591 8.68771 -0.0631354 9.7234 0.0466682 10.7475C0.156472 11.7716 0.491259 12.7587 1.02708 13.6383C1.56289 14.5179 2.2865 15.2682 3.14612 15.8355C4.00573 16.4029 4.98011 16.7732 5.99955 16.92V19H2.99955V21H5.99955V24H7.99955V21H10.9995V19H7.99955V16.927C8.8786 16.796 9.72428 16.4973 10.4905 16.047C11.8838 16.8619 13.5161 17.1692 15.1103 16.9168C16.7044 16.6643 18.162 15.8677 19.2353 14.6622C20.3085 13.4567 20.9313 11.9168 20.9977 10.3042C21.0641 8.69152 20.5701 7.10563 19.5995 5.816L21.9995 3.416V6H23.9995V2C23.9995 1.46957 23.7888 0.960859 23.4138 0.585786C23.0387 0.210714 22.53 0 21.9995 0V0ZM1.99955 10C1.99481 9.18785 2.18913 8.38691 2.56552 7.66722C2.94191 6.94754 3.4889 6.33104 4.15866 5.87165C4.82841 5.41226 5.60052 5.12396 6.40746 5.03198C7.2144 4.93999 8.03159 5.04712 8.78755 5.344C7.63649 6.62162 6.99949 8.28033 6.99949 10C6.99949 11.7197 7.63649 13.3784 8.78755 14.656C8.03159 14.9529 7.2144 15.06 6.40746 14.968C5.60052 14.876 4.82841 14.5877 4.15866 14.1284C3.4889 13.669 2.94191 13.0525 2.56552 12.3328C2.18913 11.6131 1.99481 10.8122 1.99955 10ZM13.9995 15C13.0106 15 12.0439 14.7068 11.2217 14.1573C10.3994 13.6079 9.75859 12.827 9.38015 11.9134C9.00171 10.9998 8.90269 9.99445 9.09562 9.02455C9.28855 8.05464 9.76475 7.16373 10.464 6.46447C11.1633 5.7652 12.0542 5.289 13.0241 5.09607C13.994 4.90315 14.9993 5.00216 15.913 5.3806C16.8266 5.75904 17.6075 6.3999 18.1569 7.22215C18.7063 8.04439 18.9995 9.01109 18.9995 10C18.998 11.3256 18.4707 12.5964 17.5333 13.5338C16.596 14.4711 15.3251 14.9984 13.9995 15Z" fill="#000000"/>
</g>
<defs>
<clipPath id="clip0_346_1907">
<rect width="24" height="24" fill="white"/>
</clipPath>
</defs>
</svg>
