<svg width="30" height="30" viewBox="0 0 30 30" fill="none" xmlns="http://www.w3.org/2000/svg">
<g clip-path="url(#clip0_465_1943)">
<path d="M15.9302 7.59692L12.5 11.0271L9.0698 7.59692L7.59689 9.06984L11.0271 12.5L7.59689 15.9302L9.0698 17.4032L12.5 13.973L15.9302 17.4032L17.4031 15.9302L13.9729 12.5L17.4031 9.06984L15.9302 7.59692Z" fill="#536c71"/>
<path d="M12.5 0C10.0277 0 7.61099 0.733112 5.55537 2.10663C3.49976 3.48015 1.8976 5.43238 0.951506 7.71646C0.00541035 10.0005 -0.242131 12.5139 0.240184 14.9386C0.722499 17.3634 1.91301 19.5907 3.66116 21.3388C5.40932 23.087 7.63661 24.2775 10.0614 24.7598C12.4861 25.2421 14.9995 24.9946 17.2835 24.0485C19.5676 23.1024 21.5199 21.5002 22.8934 19.4446C24.2669 17.389 25 14.9723 25 12.5C24.9964 9.18589 23.6783 6.00855 21.3349 3.66512C18.9914 1.3217 15.8141 0.00358446 12.5 0V0ZM12.5 22.9167C10.4398 22.9167 8.42582 22.3057 6.71281 21.1611C4.9998 20.0165 3.66467 18.3897 2.87625 16.4863C2.08784 14.5829 1.88156 12.4884 2.28349 10.4678C2.68542 8.44717 3.67751 6.5911 5.1343 5.1343C6.5911 3.67751 8.44717 2.68542 10.4678 2.28349C12.4884 1.88156 14.5829 2.08784 16.4863 2.87626C18.3897 3.66467 20.0165 4.9998 21.1611 6.71281C22.3057 8.42582 22.9167 10.4398 22.9167 12.5C22.9136 15.2617 21.8152 17.9095 19.8623 19.8623C17.9095 21.8152 15.2617 22.9136 12.5 22.9167V22.9167Z" fill="#536c71"/>
</g>
<g clip-path="url(#clip1_465_1943)">
<path d="M29.9997 28.2334L22.1722 20.4059C24.2055 17.9192 25.2052 14.7461 24.9645 11.5429C24.7239 8.33974 23.2612 5.35161 20.8792 3.1966C18.4972 1.04159 15.378 -0.115437 12.1668 -0.0351468C8.95559 0.045143 5.8981 1.3566 3.62674 3.62796C1.35538 5.89933 0.0439166 8.95681 -0.0363732 12.168C-0.116663 15.3792 1.04036 18.4984 3.19537 20.8804C5.35039 23.2625 8.33851 24.7251 11.5417 24.9658C14.7448 25.2064 17.918 24.2067 20.4047 22.1734L28.2322 30.0009L29.9997 28.2334ZM12.4997 22.5009C10.5219 22.5009 8.58851 21.9145 6.94402 20.8156C5.29953 19.7168 4.0178 18.155 3.26093 16.3278C2.50405 14.5005 2.30602 12.4899 2.69187 10.55C3.07772 8.61023 4.03013 6.82841 5.42865 5.42988C6.82718 4.03135 8.60901 3.07895 10.5488 2.69309C12.4886 2.30724 14.4993 2.50528 16.3266 3.26215C18.1538 4.01903 19.7156 5.30075 20.8144 6.94525C21.9132 8.58974 22.4997 10.5231 22.4997 12.5009C22.4967 15.1522 21.4422 17.694 19.5675 19.5687C17.6928 21.4434 15.151 22.498 12.4997 22.5009Z" fill="#536c71"/>
</g>
<defs>
<clipPath id="clip0_465_1943">
<rect width="25" height="25" fill="white"/>
</clipPath>
<clipPath id="clip1_465_1943">
<rect width="30" height="30" fill="white"/>
</clipPath>
</defs>
</svg>
