<svg width="25" height="25" viewBox="0 0 25 25" fill="none" xmlns="http://www.w3.org/2000/svg">
<g clip-path="url(#clip0_29_38)">
<path d="M5.68187 10.0561C5.45164 7.85503 4.18084 6.58105 2.72772 6.58105V6.58315C2.64002 6.58306 2.55243 6.58755 2.46522 6.59668C0.905844 6.75708 -0.207681 8.31333 0.0339695 10.6457C0.267319 12.8769 1.61624 14.5832 3.09857 14.5832C3.16571 14.5833 3.23285 14.5798 3.29959 14.5728C4.86209 14.4102 5.92562 12.3852 5.68187 10.0561ZM3.08187 12.4873C2.47293 11.9756 2.18016 11.2582 2.10584 10.429C2.10584 9.9044 2.10086 9.38682 2.33397 8.92061C2.46351 8.67695 2.62147 8.67271 2.68187 8.66646L2.72791 8.66567C3.07894 8.66567 3.50477 9.26538 3.60999 10.2716C3.68207 11.0554 3.57098 11.8604 3.08187 12.4873Z" fill="#000000"/>
<path d="M8.82012 8.8021C8.89409 8.8021 8.96699 8.8021 9.04097 8.79063C10.7566 8.61147 11.9295 6.38648 11.6618 3.82188C11.4087 1.4021 10.0107 0 8.41284 0C8.3168 9.76563e-05 8.22085 0.00527344 8.12534 0.015625C6.40869 0.19375 5.18159 1.90523 5.44932 4.47085C5.70659 6.925 7.18784 8.8021 8.82012 8.8021ZM7.80347 2.45835C7.9084 2.25156 8.10967 2.11084 8.33994 2.08335C8.36421 2.08184 8.38857 2.08184 8.41284 2.08335C8.89619 2.08335 9.45449 2.75522 9.58994 4.03857C9.68726 4.78501 9.57022 5.5437 9.25244 6.22607C9.06284 6.58545 8.87222 6.71045 8.82017 6.71567C8.55244 6.71567 7.69102 5.86777 7.52119 4.25107C7.4126 3.63872 7.51196 3.00767 7.80347 2.45835Z" fill="#000000"/>
<path d="M16.0051 8.79063C16.079 8.7979 16.153 8.8021 16.2259 8.8021C17.8561 8.8021 19.3405 6.9271 19.5968 4.47085C19.8645 1.90523 18.6374 0.19375 16.9228 0.015625C16.8269 0.00527344 16.7307 4.88281e-05 16.6343 0C15.0353 0 13.6374 1.4021 13.3843 3.82188C13.1165 6.38648 14.2894 8.61353 16.0051 8.79063ZM15.4572 4.0375C15.5905 2.75522 16.1468 2.08335 16.6343 2.08335C16.6582 2.08179 16.6822 2.08179 16.7061 2.08335C16.9362 2.1106 17.1374 2.25093 17.2426 2.45732C17.5352 3.0063 17.6347 3.6377 17.5249 4.25005C17.3561 5.8667 16.4936 6.71465 16.2218 6.71465C16.1739 6.71465 15.9832 6.58442 15.7936 6.22505C15.4758 5.54268 15.359 4.78384 15.4572 4.0375Z" fill="#000000"/>
<path d="M12.5012 11.4584C7.76996 11.4584 3.12621 16.2927 3.11996 21.2177C2.99081 24.55 5.82831 25.7573 9.26581 24.5281C11.3614 23.8135 13.6348 23.8135 15.7304 24.5281C16.5378 24.8008 17.3792 24.9595 18.2304 25C21.2439 25 21.8762 22.9427 21.8762 21.2177C21.8762 16.2927 17.2325 11.4584 12.5012 11.4584ZM12.5012 21.875C10.1533 21.5031 4.97621 24.826 5.20956 21.2177C5.20956 17.4156 8.88979 13.5417 12.5012 13.5417C16.1126 13.5417 19.7929 17.4157 19.7929 21.2177C20.0283 24.8229 14.8606 21.5073 12.5012 21.875Z" fill="#000000"/>
<path d="M22.887 7.69863L22.8865 7.70068C22.8012 7.68032 22.7149 7.66455 22.6279 7.65327C21.0736 7.44956 19.6311 8.70694 19.3281 11.032C19.0403 13.2569 19.9592 15.2284 21.4015 15.5704C21.4669 15.586 21.5329 15.5981 21.5996 15.6066C23.1574 15.809 24.6595 14.084 24.9597 11.7614C25.2435 9.5667 24.3009 8.03389 22.887 7.69863ZM22.894 11.4933C22.7833 12.2724 22.4895 13.0301 21.8689 13.5272C21.3944 12.8888 21.2751 12.1232 21.3941 11.2993C21.5151 10.7889 21.6297 10.2841 21.964 9.88428C22.1463 9.6771 22.301 9.70938 22.3612 9.71724L22.4062 9.72715C22.7478 9.80811 23.0237 10.4899 22.894 11.4933Z" fill="#000000"/>
</g>
<defs>
<clipPath id="clip0_29_38">
<rect width="25" height="25" fill="white"/>
</clipPath>
</defs>
</svg>
