<svg width="24" height="24" viewBox="0 0 24 24" fill="none" xmlns="http://www.w3.org/2000/svg">
<g clip-path="url(#clip0_359_2102)">
<path d="M21.0005 24.0003H16.0005V22.0003H21.0005C21.2657 22.0003 21.52 21.8949 21.7076 21.7074C21.8951 21.5199 22.0005 21.2655 22.0005 21.0003V16.0003H24.0005V21.0003C24.0005 21.7959 23.6844 22.559 23.1218 23.1216C22.5592 23.6842 21.7961 24.0003 21.0005 24.0003Z" fill="#000000"/>
<path d="M2 8H0V3C0 2.20435 0.31607 1.44129 0.87868 0.87868C1.44129 0.31607 2.20435 0 3 0L8 0V2H3C2.73478 2 2.48043 2.10536 2.29289 2.29289C2.10536 2.48043 2 2.73478 2 3V8Z" fill="#000000"/>
<path d="M8 24.0003H3C2.20435 24.0003 1.44129 23.6842 0.87868 23.1216C0.31607 22.559 0 21.7959 0 21.0003L0 16.0003H2V21.0003C2 21.2655 2.10536 21.5199 2.29289 21.7074C2.48043 21.8949 2.73478 22.0003 3 22.0003H8V24.0003Z" fill="#000000"/>
<path d="M24.0005 8H22.0005V3C22.0005 2.73478 21.8951 2.48043 21.7076 2.29289C21.52 2.10536 21.2657 2 21.0005 2H16.0005V0H21.0005C21.7961 0 22.5592 0.31607 23.1218 0.87868C23.6844 1.44129 24.0005 2.20435 24.0005 3V8Z" fill="#000000"/>
<path d="M18.2925 19.7066L9.70648 11.1206C9.51895 10.9332 9.26464 10.8279 8.99948 10.8279C8.73432 10.8279 8.48001 10.9332 8.29248 11.1206L4.70648 14.7066L3.29248 13.2926L6.87848 9.70664C7.44106 9.14422 8.20399 8.82828 8.99948 8.82828C9.79497 8.82828 10.5579 9.14422 11.1205 9.70664L19.7065 18.2926L18.2925 19.7066Z" fill="#000000"/>
<path d="M16.0005 10.0003C15.4071 10.0003 14.8271 9.82433 14.3338 9.49468C13.8404 9.16504 13.4559 8.6965 13.2289 8.14833C13.0018 7.60015 12.9424 6.99695 13.0581 6.41501C13.1739 5.83306 13.4596 5.29851 13.8792 4.87896C14.2987 4.4594 14.8333 4.17368 15.4152 4.05792C15.9972 3.94216 16.6004 4.00157 17.1485 4.22864C17.6967 4.4557 18.1653 4.84022 18.4949 5.33357C18.8245 5.82691 19.0005 6.40693 19.0005 7.00028C19.0005 7.79593 18.6844 8.55899 18.1218 9.1216C17.5592 9.68421 16.7961 10.0003 16.0005 10.0003V10.0003ZM16.0005 6.00028C15.8027 6.00028 15.6094 6.05893 15.4449 6.16881C15.2805 6.27869 15.1523 6.43487 15.0766 6.61759C15.0009 6.80032 14.9811 7.00139 15.0197 7.19537C15.0583 7.38935 15.1535 7.56753 15.2934 7.70738C15.4332 7.84724 15.6114 7.94248 15.8054 7.98106C15.9994 8.01965 16.2004 7.99984 16.3832 7.92416C16.5659 7.84847 16.7221 7.7203 16.832 7.55585C16.9418 7.3914 17.0005 7.19806 17.0005 7.00028C17.0005 6.73506 16.8951 6.48071 16.7076 6.29317C16.5201 6.10563 16.2657 6.00028 16.0005 6.00028Z" fill="#000000"/>
</g>
<defs>
<clipPath id="clip0_359_2102">
<rect width="24" height="24" fill="white"/>
</clipPath>
</defs>
</svg>
