<svg width="30" height="30" viewBox="0 0 30 30" fill="none" xmlns="http://www.w3.org/2000/svg">
<g clip-path="url(#clip0_261_341)">
<path d="M21.8752 1.14645C20.4676 1.16835 19.0908 1.56127 17.8836 2.28554C16.6765 3.00982 15.6819 4.03979 15.0002 5.27145C14.3185 4.03979 13.3239 3.00982 12.1167 2.28554C10.9096 1.56127 9.53275 1.16835 8.12519 1.14645C5.88137 1.24394 3.76732 2.22552 2.24492 3.87674C0.722516 5.52797 -0.0844962 7.71461 0.000192004 9.95895C0.000192004 18.4277 13.6952 28.209 14.2777 28.624L15.0002 29.1352L15.7227 28.624C16.3052 28.2115 30.0002 18.4277 30.0002 9.95895C30.0849 7.71461 29.2779 5.52797 27.7555 3.87674C26.2331 2.22552 24.119 1.24394 21.8752 1.14645ZM15.0002 26.0577C10.9339 23.0202 2.50019 15.5577 2.50019 9.95895C2.41474 8.37735 2.95815 6.82612 4.0119 5.64358C5.06564 4.46104 6.54423 3.74314 8.12519 3.64645C9.70615 3.74314 11.1847 4.46104 12.2385 5.64358C13.2922 6.82612 13.8356 8.37735 13.7502 9.95895H16.2502C16.1647 8.37735 16.7081 6.82612 17.7619 5.64358C18.8156 4.46104 20.2942 3.74314 21.8752 3.64645C23.4562 3.74314 24.9347 4.46104 25.9885 5.64358C27.0422 6.82612 27.5856 8.37735 27.5002 9.95895C27.5002 15.5602 19.0664 23.0202 15.0002 26.0577Z" fill="#143642"/>
</g>
<defs>
<clipPath id="clip0_261_341">
<rect width="30" height="30" fill="white"/>
</clipPath>
</defs>
</svg>
